<svg width="36" height="69" viewBox="0 0 36 69" fill="none" xmlns="http://www.w3.org/2000/svg">
<g clip-path="url(#clip0)">
<path d="M17.9302 23.6565C20.7678 23.6565 23.0681 21.3796 23.0681 18.5709C23.0681 15.7622 20.7678 13.4853 17.9302 13.4853C15.0927 13.4853 12.7924 15.7622 12.7924 18.5709C12.7924 21.3796 15.0927 23.6565 17.9302 23.6565Z" fill="#6B6BEC"/>
<path d="M35.6865 19.4925C35.6865 19.4925 30.4211 23.4261 21.9208 24.524L21.9425 24.5241C18.7548 25.0925 20.9401 25.2934 20.9401 25.2934C24.8197 25.7821 24.0057 26.3251 24.0057 26.3251L18.0793 32.8533L13.1778 24.5315L13.1937 24.5314C9.18725 24.027 4.78669 22.7803 0.108826 20.3881C0.108826 20.3881 9.5452 28.3015 11.2356 31.3074C11.2356 31.3074 16.6203 38.6933 18.9283 59.3033C20.1548 38.6043 25.1463 30.9577 25.1463 30.9577C26.6772 27.8706 35.6864 19.4925 35.6864 19.4925L35.6865 19.4925Z" fill="#6B6BEC"/>
<path d="M13.876 0.0325318C8.50981 0.0319487 4.48764 8.91266 3.3956 21.5102C3.39036 21.5707 3.38663 21.6331 3.38153 21.6937C4.42883 21.7087 6.52563 21.5873 8.35262 20.5644C8.38961 20.3145 8.42675 20.0645 8.46704 19.8197C9.75764 11.9753 12.7085 6.72869 16.4795 6.72842C18.2901 6.72836 20.0724 7.94088 21.6954 10.0666C22.2639 10.6295 22.9749 10.2058 23.3752 9.66859C20.688 3.70583 17.3238 0.0326575 13.876 0.0325318ZM7.42578 27.8702C7.4921 27.784 6.30605 27.4818 3.10413 29.3127C3.11856 31.0025 3.18029 32.7319 3.29397 34.4927C4.52267 53.5249 11.2526 68.9535 18.3255 68.9528C22.749 68.9527 26.259 62.9174 27.9673 53.7401C25.4861 59.0378 22.3889 60.1646 22.3889 60.1646C21.2245 60.6175 20.7267 60.6306 20.1006 60.7283C14.4466 60.4419 8.89729 48.4705 7.91478 33.7347L7.42578 27.8702Z" fill="#E46463"/>
</g>
<defs>
<clipPath id="clip0">
<rect width="36" height="69" fill="white"/>
</clipPath>
</defs>
</svg>
